<svg xmlns="http://www.w3.org/2000/svg" version="1.0" preserveAspectRatio="xMidYMid meet" viewBox="50.08 35 212.92 208.35">
      <g transform="translate(0.000000,268.000000) scale(0.100000,-0.100000)" fill="#a9a9a9" stroke="none">
          <path d="M1243 2306 c-28 -24 -28 -25 -33 -173 l-5 -148 -151 -3 c-147 -2 -152 -3 -175 -28 -23 -25 -24 -32 -25 -172 l-1 -147 -156 -3 c-155 -2 -156 -3 -176 -29 -28 -34 -26 -76 3 -110 l24 -28 155 -3 156 -4 -2 -41 -2 -42 -158 -5 c-152 -5 -160 -6 -178 -29 -26 -32 -24 -74 5 -108 l24 -28 155 -3 156 -3 -2 -42 -2 -42 -90 0 c-194 -1 -214 -3 -240 -30 -40 -39 -28 -111 22 -134 14 -6 84 -11 169 -11 l144 0 -6 -127 c-8 -146 4 -195 51 -213 15 -6 89 -10 166 -10 l139 0 0 -145 c0 -142 1 -147 25 -170 17 -17 35 -25 60 -25 81 0 95 32 95 211 l0 129 43 0 44 0 -5 -99 c-6 -123 3 -184 31 -217 31 -35 87 -37 122 -4 25 23 25 26 25 172 l0 148 50 0 50 0 0 -150 c0 -137 2 -152 20 -170 31 -31 102 -28 129 6 19 24 21 40 21 170 l0 144 139 0 c77 0 151 4 166 10 43 16 55 63 55 210 l0 130 140 0 c181 0 210 13 210 91 0 18 -10 39 -25 54 -26 27 -73 32 -247 26 l-78 -3 0 45 0 46 151 3 151 3 24 28 c31 37 31 81 -1 112 -23 24 -28 25 -175 25 l-150 0 0 44 0 45 151 3 151 3 24 28 c31 37 31 81 -1 112 -23 24 -28 25 -174 25 l-150 0 -3 151 -3 151 -28 24 c-27 23 -34 24 -178 24 l-149 0 0 140 c0 80 -5 149 -11 163 -21 47 -89 61 -130 28 -23 -18 -24 -26 -29 -173 l-5 -153 -45 0 -45 0 -5 153 c-5 147 -6 155 -29 173 -13 10 -34 19 -48 19 -32 0 -79 -25 -89 -47 -4 -10 -9 -81 -11 -158 l-3 -140 -37 0 -38 0 -5 148 c-5 148 -5 149 -33 173 -36 31 -78 31 -114 0z m857 -1021 l0 -525 -535 0 -535 0 0 525 0 525 535 0 535 0 0 -525z"/>
      </g>
  </svg>